<svg width="24" height="24" viewBox="0 0 24 24" fill="none" xmlns="http://www.w3.org/2000/svg">
<path fill-rule="evenodd" clip-rule="evenodd" d="M3 14.4388V9.40228H6.42106C6.90381 9.40228 7.37027 9.22767 7.73436 8.91067L12 5.19677L12 18.761L7.74773 14.9495C7.38085 14.6207 6.9055 14.4388 6.41282 14.4388H3ZM2 14.4388V9.40228C2 8.84999 2.44772 8.40228 3 8.40228H6.42106C6.66244 8.40228 6.89567 8.31497 7.07771 8.15648L11.3434 4.44257C11.9905 3.87917 13 4.33877 13 5.19677V18.761C13 19.6258 11.9765 20.0828 11.3325 19.5056L7.08027 15.6942C6.89684 15.5298 6.65916 15.4388 6.41282 15.4388H3C2.44772 15.4388 2 14.9911 2 14.4388ZM16.5564 9.55712C16.7517 9.36186 17.0683 9.36186 17.2635 9.55712L19.4058 11.6993L21.548 9.55712C21.7433 9.36186 22.0598 9.36186 22.2551 9.55712C22.4504 9.75238 22.4504 10.069 22.2551 10.2642L20.1129 12.4064L22.2551 14.5487C22.4504 14.7439 22.4504 15.0605 22.2551 15.2558C22.0598 15.451 21.7433 15.451 21.548 15.2558L19.4058 13.1136L17.2635 15.2558C17.0683 15.451 16.7517 15.451 16.5564 15.2558C16.3612 15.0605 16.3612 14.7439 16.5564 14.5487L18.6987 12.4064L16.5564 10.2642C16.3612 10.069 16.3612 9.75238 16.5564 9.55712Z" fill="black"/>
</svg>
