<svg width="12" height="12" viewBox="0 0 12 12" fill="none" xmlns="http://www.w3.org/2000/svg">
<g id="light/ar-right_16px_1">
<path id="Exclude" fill-rule="evenodd" clip-rule="evenodd" d="M6 12C9.31371 12 12 9.31371 12 6C12 2.68629 9.31371 -1.17422e-07 6 -2.62268e-07C2.68629 -4.07115e-07 -1.17422e-07 2.68629 -2.62268e-07 6C-4.07115e-07 9.31371 2.68629 12 6 12ZM4.31569 4.68431C4.00327 4.37189 3.49673 4.37189 3.18431 4.68431C2.87189 4.99673 2.87189 5.50327 3.18431 5.81568L5.43431 8.06568C5.74673 8.3781 6.25327 8.3781 6.56569 8.06569L8.81569 5.81569C9.1281 5.50327 9.1281 4.99673 8.81569 4.68431C8.50327 4.37189 7.99673 4.37189 7.68431 4.68431L6 6.36863L4.31569 4.68431Z" fill="#555555"/>
</g>
</svg>
