<svg width="49" height="48" viewBox="0 0 49 48" fill="none" xmlns="http://www.w3.org/2000/svg">
<g clip-path="url(#clip0_112_1894)">
<path fill-rule="evenodd" clip-rule="evenodd" d="M24.2554 9.80185C24.0778 10.024 23.9281 10.3899 24.0029 10.9743L26.4251 29.8937C26.4251 29.8938 26.4253 29.8953 25.2993 30.0394L26.4251 29.8937C26.4921 30.4174 26.1895 30.9198 25.6945 31.1036C25.1996 31.2874 24.6433 31.1058 24.3522 30.6653C22.9118 28.4858 21.0854 27.5384 18.4973 26.2683C17.4157 25.7375 16.6016 26.1231 16.2278 26.6072C16.0294 26.8641 15.9712 27.1213 15.9937 27.3085C16.0125 27.4641 16.0973 27.6799 16.4369 27.8886C18.8518 29.3726 20.2018 30.2604 21.3313 31.58C22.5451 32.998 23.8033 34.5035 24.7571 35.6531C25.2342 36.2282 25.6357 36.715 25.9179 37.058L26.2466 37.458L26.3511 37.5855C27.3319 38.7009 28.0642 39.4285 28.8661 39.9697C29.6424 40.4936 30.5393 40.879 31.8831 41.215L31.9501 41.2225C32.0395 41.2321 32.1714 41.2455 32.3368 41.2604C32.6682 41.2901 33.1309 41.3251 33.6542 41.3461C34.7297 41.3892 35.9531 41.3676 36.8267 41.1692C38.2083 40.8556 38.8717 40.6919 39.8759 40.0139C41.6536 38.8138 43.1512 36.5554 42.8911 33.0018L41.4084 21.421C41.3255 20.7734 41.0979 20.4273 40.9158 20.2605C40.7351 20.0951 40.5541 20.0581 40.4139 20.0761C40.2736 20.094 40.1077 20.1754 39.9746 20.381C39.8404 20.5883 39.7073 20.9806 39.7902 21.6281C39.7902 21.6281 39.7902 21.6281 39.7902 21.6281L40.3406 25.9269L39.2148 26.0725L38.0887 26.2167L37.5382 21.9165C37.5382 21.9165 37.5382 21.9165 37.5382 21.9165L37.373 20.6264C37.2701 19.822 36.5888 19.3731 35.877 19.413C35.5398 19.432 35.2815 19.5634 35.1229 19.7513C34.9755 19.926 34.8092 20.2742 34.8948 20.9437C34.8948 20.9436 34.8948 20.9437 34.8948 20.9437L35.5002 25.6728L34.3744 25.8181L33.2484 25.9622L32.6428 21.232C32.6428 21.232 32.6428 21.232 32.6428 21.232C32.5129 20.2179 32.1903 19.6935 31.9234 19.4425C31.6703 19.2046 31.3928 19.1374 31.1248 19.173C30.5309 19.2517 29.9456 19.8388 30.0544 20.6891C30.0544 20.6891 30.0544 20.6892 30.0544 20.6891L30.605 24.9895C30.6846 25.6113 30.245 26.18 29.6231 26.2596C29.0012 26.3392 28.4326 25.8997 28.353 25.2778L27.8024 20.9775C27.8024 20.9775 27.8024 20.9776 27.8024 20.9775L26.4811 10.657C26.4063 10.0725 26.1692 9.75607 25.9414 9.5859C25.6985 9.40446 25.3807 9.32552 25.0566 9.36703C24.7325 9.40853 24.4447 9.56504 24.2554 9.80185ZM29.6233 17.3214L28.7331 10.3687C28.5882 9.23668 28.0692 8.34146 27.3002 7.76699C26.5463 7.20378 25.6266 7.00507 24.7682 7.11502C23.9097 7.22496 23.0698 7.649 22.4822 8.38395C21.8827 9.1336 21.6059 10.1307 21.7509 11.2626L23.7253 26.6851C22.4314 25.6744 20.9992 24.967 19.4975 24.2301C17.4384 23.2197 15.4578 23.8894 14.4306 25.2198C13.9285 25.8701 13.6348 26.7101 13.7397 27.5802C13.8484 28.482 14.3705 29.2836 15.2482 29.823C17.7028 31.3313 18.7441 32.0488 19.6065 33.0563C20.8096 34.4619 22.0596 35.9574 23.0097 37.1027C23.4846 37.6751 23.884 38.1594 24.1647 38.5006L24.4911 38.8978L24.6061 39.0382L24.6192 39.0542L24.6325 39.0693C25.6478 40.2249 26.5396 41.1386 27.596 41.8516C28.6682 42.5752 29.8505 43.0532 31.41 43.4369L31.476 43.4531L31.5434 43.4614L31.6811 42.3345C31.5434 43.4614 31.5433 43.4613 31.5434 43.4614L31.5477 43.4619L31.5569 43.463L31.5893 43.4668C31.6169 43.4699 31.6567 43.4744 31.7074 43.4799C31.8087 43.4908 31.9539 43.5056 32.1339 43.5217C32.4932 43.554 32.9943 43.5919 33.5633 43.6147C34.6725 43.6591 36.1475 43.6516 37.3293 43.3833C38.7496 43.0609 39.7691 42.8253 41.1463 41.8957C43.6022 40.2377 45.485 37.188 45.1528 32.8017L45.1506 32.7724L45.1469 32.7433L43.6604 21.1327C43.3847 18.9788 41.8846 17.5988 40.1255 17.824C39.607 17.8904 39.1454 18.0861 38.7593 18.3843C37.9807 17.5052 36.8158 17.0864 35.7499 17.1462C35.0182 17.1872 34.2679 17.4511 33.6756 17.9886C33.6122 17.919 33.5465 17.8523 33.4787 17.7885C32.7069 17.0628 31.7404 16.8011 30.8265 16.9222C30.4047 16.9781 29.9966 17.1155 29.6233 17.3214ZM34.3744 25.8181L33.2484 25.9622C33.328 26.5841 33.8967 27.0237 34.5185 26.9441C35.1404 26.8645 35.5799 26.2946 35.5002 25.6728L34.3744 25.8181ZM39.2148 26.0725L38.0887 26.2167C38.1684 26.8385 38.737 27.2782 39.3589 27.1985C39.9808 27.1189 40.4202 26.5488 40.3406 25.9269L39.2148 26.0725Z" fill="white"/>
<rect x="15.3114" y="2.95923" width="2" height="22" transform="rotate(28.312 15.3114 2.95923)" fill="white"/>
<path d="M16.1432 2.15632C16.6342 1.91824 17.2142 2.23069 17.2855 2.77165L17.9029 7.45803C17.9881 8.10493 17.3048 8.57629 16.7303 8.26683L11.8597 5.64297C11.2853 5.33351 11.303 4.50354 11.8901 4.21884L16.1432 2.15632Z" fill="white"/>
<path d="M3.71583 25.2228C3.7871 25.7637 4.3671 26.0762 4.85805 25.8381L9.11122 23.7756C9.69831 23.4909 9.716 22.6609 9.14156 22.3515L4.27096 19.7276C3.69653 19.4181 3.01317 19.8895 3.0984 20.5364L3.71583 25.2228Z" fill="white"/>
</g>
<defs>
<clipPath id="clip0_112_1894">
<rect width="48" height="48" fill="white" transform="translate(0.5)"/>
</clipPath>
</defs>
</svg>
