<svg width="24" height="24" viewBox="0 0 24 24" fill="none" xmlns="http://www.w3.org/2000/svg">
<path fill-rule="evenodd" clip-rule="evenodd" d="M3 14.4388V9.40228H6.42106C6.90381 9.40228 7.37027 9.22767 7.73436 8.91067L12 5.19677L12 18.761L7.74773 14.9495C7.38085 14.6207 6.9055 14.4388 6.41282 14.4388H3ZM2 14.4388V9.40228C2 8.84999 2.44772 8.40228 3 8.40228H6.42106C6.66244 8.40228 6.89567 8.31497 7.07771 8.15648L11.3434 4.44257C11.9905 3.87917 13 4.33877 13 5.19677V18.761C13 19.6258 11.9765 20.0828 11.3325 19.5056L7.08027 15.6942C6.89684 15.5298 6.65916 15.4388 6.41282 15.4388H3C2.44772 15.4388 2 14.9911 2 14.4388ZM19.6159 6.68011C19.7927 6.46797 20.108 6.43931 20.3201 6.61609C20.8976 7.09733 21.9613 8.44063 22.3625 10.2016C22.7736 12.0058 22.4817 14.2256 20.3536 16.3538C20.1583 16.549 19.8417 16.549 19.6464 16.3538C19.4512 16.1585 19.4512 15.8419 19.6464 15.6466C21.5183 13.7748 21.7264 11.9113 21.3875 10.4238C21.0387 8.8931 20.1024 7.7364 19.6799 7.38431C19.4678 7.20753 19.4391 6.89225 19.6159 6.68011ZM17.8201 7.61609C17.608 7.43931 17.2927 7.46797 17.1159 7.68011C16.9391 7.89225 16.9678 8.20753 17.1799 8.38431C17.5988 8.73338 18.2833 9.63463 18.5094 10.7842C18.728 11.8954 18.5259 13.2672 17.1464 14.6466C16.9512 14.8419 16.9512 15.1585 17.1464 15.3538C17.3417 15.549 17.6583 15.549 17.8536 15.3538C19.4741 13.7332 19.772 12.0217 19.4906 10.5912C19.2167 9.1991 18.4012 8.10036 17.8201 7.61609ZM15.3201 8.61609C15.108 8.43931 14.7927 8.46797 14.6159 8.68011C14.4391 8.89225 14.4678 9.20753 14.6799 9.38431C15.0937 9.72914 15.5236 10.3706 15.6298 11.1318C15.7322 11.8655 15.5405 12.7526 14.6464 13.6466C14.4512 13.8419 14.4512 14.1585 14.6464 14.3538C14.8417 14.549 15.1583 14.549 15.3536 14.3538C16.4595 13.2478 16.7678 12.0515 16.6202 10.9936C16.4764 9.96317 15.9063 9.1046 15.3201 8.61609Z" fill="black"/>
</svg>
